<svg id="Layer_3" data-name="Layer 3" xmlns="http://www.w3.org/2000/svg" viewBox="0 0 24.96 16.39" fill="#ffffff">
  <title>education</title>
  <g>
    <path d="M12.21,11.76a.9.9,0,0,1-.4-.08L.6,6.8A1,1,0,0,1,0,5.88,1,1,0,0,1,.6,5L11.81.08a1,1,0,0,1,.8,0L23.81,5a1,1,0,0,1,.6.91,1,1,0,0,1-.6.92l-11.2,4.88a1,1,0,0,1-.4.08ZM3.5,5.88l8.71,3.79,8.7-3.79-8.7-3.79L3.5,5.88Z" />
    <path d="M12.21,16.39a15.63,15.63,0,0,1-8.77-2.73A1,1,0,0,1,3,12.83V7.5a1,1,0,0,1,2,0v4.79a13.45,13.45,0,0,0,14.41,0V7.5a1,1,0,0,1,2,0v5.33a1,1,0,0,1-.44.83,15.63,15.63,0,0,1-8.76,2.73Z" />
    <path d="M24,13.67a.5.5,0,0,1-.5-.5V5.83a.5.5,0,0,1,.5-.5.51.51,0,0,1,.5.5v7.34a.51.51,0,0,1-.5.5Z" />
    <path d="M24,14.17a1,1,0,0,1-1-1V9.67a1,1,0,0,1,2,0v3.5a1,1,0,0,1-1,1Z" />
  </g>
</svg>
