<svg id="Layer_3" data-name="Layer 3" xmlns="http://www.w3.org/2000/svg" viewBox="0 0 26.03 19.56" fill="#ffffff">
  <title>house</title>
  <g>
    <path d="M22,19.56H15.62a1,1,0,0,1-1-1V12.25H11.41v6.31a1,1,0,0,1-1,1H4a1,1,0,0,1-1-1V8.17a1,1,0,0,1,2,0v9.39h4.4V11.25a1,1,0,0,1,1-1h5.21a1,1,0,0,1,1,1v6.31H21V8.17a1,1,0,1,1,2,0V18.56a1,1,0,0,1-1,1Z"/>
    <path d="M25,10.6a1,1,0,0,1-.58-.18L13,2.23,1.58,10.42A1,1,0,0,1,.42,8.79l12-8.6a1,1,0,0,1,1.17,0l12,8.6a1,1,0,0,1,.23,1.4,1,1,0,0,1-.81.41Z"/>
  </g>
</svg>
