<svg id="Layer_3" data-name="Layer 3" xmlns="http://www.w3.org/2000/svg" viewBox="0 0 23.68 23.55" fill="#ffffff">
  <title>music</title>
  <g>
    <g>
      <g>
        <path d="M2.7,23.55A2.44,2.44,0,0,1,0,21.69c-.35-1.88,1.59-3.89,3.6-4.84a6.2,6.2,0,0,1,2.59-.64,2.43,2.43,0,0,1,2.65,1.87C9.23,20,7.29,22,5.28,22.91a6.16,6.16,0,0,1-2.58.64Zm3.53-5.34a4.32,4.32,0,0,0-1.74.45c-1.64.78-2.58,2.11-2.48,2.66,0,.18.45.23.69.23a4.27,4.27,0,0,0,1.73-.45C6.08,20.32,7,19,6.92,18.44c0-.18-.45-.23-.69-.23Z" />
        <polygon points="8.92 18.25 6.92 18.25 6.92 4.58 8.92 4.58 8.92 18.25 8.92 18.25" />
      </g>
      <g>
        <path d="M17.45,20a2.45,2.45,0,0,1-2.66-1.87c-.35-1.87,1.6-3.89,3.6-4.83A6.2,6.2,0,0,1,21,12.63a2.45,2.45,0,0,1,2.66,1.86C24,16.37,22,18.38,20,19.33a6.24,6.24,0,0,1-2.59.64ZM21,14.63a4.32,4.32,0,0,0-1.74.45c-1.64.77-2.58,2.11-2.48,2.65,0,.19.45.24.69.24a4.27,4.27,0,0,0,1.73-.45c1.65-.78,2.59-2.12,2.49-2.66,0-.18-.45-.23-.69-.23Z" />
        <polygon points="23.67 14.67 21.67 14.67 21.67 1 23.67 1 23.67 14.67 23.67 14.67" />
      </g>
      <path d="M7.92,10.21a1,1,0,0,1-1-1V4.58a1,1,0,0,1,.77-1L22.44,0a1,1,0,0,1,1.23,1V5.63a1,1,0,0,1-.76,1L8.16,10.19l-.24,0Zm1-4.84V7.94l12.75-3.1V2.27L8.92,5.37Z" />
    </g>
    <g>
      <g>
        <path d="M2.7,23.55A2.44,2.44,0,0,1,0,21.69c-.35-1.88,1.59-3.89,3.6-4.84a6.2,6.2,0,0,1,2.59-.64,2.43,2.43,0,0,1,2.65,1.87C9.23,20,7.29,22,5.28,22.91a6.16,6.16,0,0,1-2.58.64Zm3.53-5.34a4.32,4.32,0,0,0-1.74.45c-1.64.78-2.58,2.11-2.48,2.66,0,.18.45.23.69.23a4.27,4.27,0,0,0,1.73-.45C6.08,20.32,7,19,6.92,18.44c0-.18-.45-.23-.69-.23Z" />
        <polygon points="8.92 18.25 6.92 18.25 6.92 4.58 8.92 4.58 8.92 18.25 8.92 18.25" />
      </g>
      <g>
        <path d="M17.45,20a2.45,2.45,0,0,1-2.66-1.87c-.35-1.87,1.6-3.89,3.6-4.83A6.2,6.2,0,0,1,21,12.63a2.45,2.45,0,0,1,2.66,1.86C24,16.37,22,18.38,20,19.33a6.24,6.24,0,0,1-2.59.64ZM21,14.63a4.32,4.32,0,0,0-1.74.45c-1.64.77-2.58,2.11-2.48,2.65,0,.19.45.24.69.24a4.27,4.27,0,0,0,1.73-.45c1.65-.78,2.59-2.12,2.49-2.66,0-.18-.45-.23-.69-.23Z" />
        <polygon points="23.67 14.67 21.67 14.67 21.67 1 23.67 1 23.67 14.67 23.67 14.67" />
      </g>
      <path d="M7.92,10.21a1,1,0,0,1-1-1V4.58a1,1,0,0,1,.77-1L22.44,0a1,1,0,0,1,1.23,1V5.63a1,1,0,0,1-.76,1L8.16,10.19l-.24,0Zm1-4.84V7.94l12.75-3.1V2.27L8.92,5.37Z" />
    </g>
  </g>
</svg>
