<svg id="Layer_3" data-name="Layer 3" xmlns="http://www.w3.org/2000/svg" viewBox="0 0 21.75 23.5" fill="#ffffff">
  <title>transport</title>
  <g>
    <path d="M20.75,20.58H1a1,1,0,0,1-1-1V7A7,7,0,0,1,7,0h7.75a7,7,0,0,1,7,7V19.58a1,1,0,0,1-1,1ZM2,18.58H19.75V7a5,5,0,0,0-5-5H7A5,5,0,0,0,2,7V18.58Z" />
    <g>
      <path d="M5,23.5c-1.88,0-3-.61-3-1.63V20.5a1,1,0,0,1,2,0v.89a4,4,0,0,0,1,.11,4,4,0,0,0,1-.11V20.5a1,1,0,1,1,2,0v1.37c0,1-1.12,1.63-3,1.63Z" />
      <path d="M16.71,23.5c-1.88,0-3-.61-3-1.63V20.5a1,1,0,0,1,2,0v.89a4.6,4.6,0,0,0,2,0V20.5a1,1,0,0,1,2,0v1.37c0,1-1.12,1.63-3,1.63Z" />
    </g>
    <path d="M15.71,4.92H6a1,1,0,0,1,0-2h9.67a1,1,0,0,1,0,2Z" />
    <g>
      <path d="M6.12,13.59a1.5,1.5,0,1,0,1.5,1.49,1.49,1.49,0,0,0-1.5-1.49Z" />
      <path d="M15.62,13.59a1.5,1.5,0,1,0,1.5,1.49,1.49,1.49,0,0,0-1.5-1.49Z" />
    </g>
    <path d="M17.75,12.87H4a1.5,1.5,0,0,1-1.5-1.5V7A1.5,1.5,0,0,1,4,5.5H17.75A1.5,1.5,0,0,1,19.25,7v4.37a1.5,1.5,0,0,1-1.5,1.5ZM4,6.5a.5.5,0,0,0-.5.5v4.37a.5.5,0,0,0,.5.5H17.75a.5.5,0,0,0,.5-.5V7a.5.5,0,0,0-.5-.5Z" />
  </g>
</svg>
