<svg id="Layer_3" data-name="Layer 3" xmlns="http://www.w3.org/2000/svg" viewBox="0 0 18.28 22.62" fill="#ffffff">
  <title>user</title>
  <g>
    <path d="M15.87,16a.92.92,0,0,1-.42-.1,14.53,14.53,0,0,0-2.27-.83l.53-1.93a15.75,15.75,0,0,1,1.68.56,9.57,9.57,0,0,0,.68-3.54C16.07,5.67,13,2,9.14,2S2.21,5.67,2.21,10.18a9.37,9.37,0,0,0,.68,3.54,15,15,0,0,1,1.68-.56l.52,1.93a14.05,14.05,0,0,0-2.26.83,1,1,0,0,1-1.31-.43A11.19,11.19,0,0,1,.21,10.18C.21,4.57,4.21,0,9.14,0s8.93,4.57,8.93,10.18a11.19,11.19,0,0,1-1.31,5.31,1,1,0,0,1-.89.53Z" />
    <path d="M9.14,17.18a4.36,4.36,0,0,1-.51,0C6,16.86,4,14.37,3.17,10.32A7.65,7.65,0,0,1,3,9.08a.5.5,0,0,1,.13-.37.52.52,0,0,1,.37-.16H6.26l.45-3.22A.5.5,0,0,1,7.2,4.9a.51.51,0,0,1,.5.43l.45,3.22h.7L9,7a.5.5,0,0,1,.49-.45h0A.5.5,0,0,1,10,7l.15,1.51h4.62a.48.48,0,0,1,.36.16.47.47,0,0,1,.14.37,10.62,10.62,0,0,1-.15,1.23,10.82,10.82,0,0,1-2.29,5.11h0l-.24.25-.45-.26.35.35c-.17.16-.28.25-.39.34l-.4-.32.31.4-.36.24-.09.06-.36.2-.12.06-.34.14-.1,0-.27.08-.26-.45.14.48-.1,0-.32.05-.17,0a2.82,2.82,0,0,1-.41,0Zm.38-1,.22.47-.07-.5.24,0,.24.45L10,16.06l.27-.07.37-.15.36-.2.36-.25c.17-.13.26-.21.35-.29l.1-.1.24-.24h0a10,10,0,0,0,2.06-4.63c0-.18.06-.37.08-.57H9.69a.41.41,0,0,1-.19,0,.45.45,0,0,1-.2,0H7.71a.49.49,0,0,1-.49-.43l0-.1v.1a.51.51,0,0,1-.5.43H4.06a4.85,4.85,0,0,0,.09.57c.73,3.59,2.41,5.79,4.59,6l.39,0,.39,0Z" />
    <g>
      <path d="M2,22.62H0a7,7,0,0,1,7.19-6.76v2A5,5,0,0,0,2,22.62Z" />
      <path d="M18.28,22.62h-2a5,5,0,0,0-5.2-4.76v-2a7,7,0,0,1,7.2,6.76Z" />
    </g>
    <g>
      <path d="M7,10.3a.59.59,0,1,0,0,1.17A.59.59,0,0,0,7,10.3Z" />
      <path d="M11.25,10.3a.59.59,0,1,0,.58.58.58.58,0,0,0-.58-.58Z" />
    </g>
  </g>
</svg>
