<svg id="Isolation_Mode" data-name="Isolation Mode" xmlns="http://www.w3.org/2000/svg" viewBox="0 0 78.46 78.77">
  <title>logo-mobile</title>
  <path d="M62.62,31.88h0a25.46,25.46,0,0,0,2.15-10.25C64.76,7.55,53.34,0,39.25,0s-25.5,7.55-25.5,21.63A25.46,25.46,0,0,0,15.9,31.88h0l.13.27c.27.59.56,1.18.87,1.75L39.21,78.77,61.59,33.94q.48-.88.9-1.8Z" fill="#d1d3d4"/>
  <path d="M39.21,78.77,61.59,33.94q.48-.88.9-1.8l.13-.26h0a25.46,25.46,0,0,0,2.15-10.25C64.76,7.54,53.34,0,39.25,0" fill="#e6e7e8"/>
  <path d="M39.21,21.93c0,11.21.7,20.3,11.91,20.3A20.31,20.31,0,1,0,39.77,5.09l1.75,4.14s1.93,2.33,5.22-.48l.31,2L39.24,22" fill="#1baf5d"/>
  <path d="M67.36,16.05l3.69,2.05,7.41,19.95S57.1,43.47,51.12,42.23,45.25,36,45.25,36s24.69,9.2,22.11-19.94" fill="#1baf5d"/>
  <path d="M39.25,21.93c0,11.21-.69,20.3-11.91,20.3A20.31,20.31,0,1,1,38.69,5.09L36.94,9.23S35,11.56,31.72,8.75l-.31,2L39.22,22" fill="#8dc63f"/>
  <path d="M39.25,21.93A11.91,11.91,0,1,1,27.34,10,11.91,11.91,0,0,1,39.25,21.93v0" fill="#8dc63f"/>
  <path d="M27.34,12.15a9.78,9.78,0,1,0,9.78,9.78,9.78,9.78,0,0,0-9.78-9.78m0,23.81a14,14,0,1,1,14-14,14,14,0,0,1-14,14" fill="#fff"/>
  <path d="M63,21.93A11.91,11.91,0,1,1,51.11,10h0A11.9,11.9,0,0,1,63,21.92h0" fill="#1baf5d"/>
  <path d="M51.12,12.15a9.78,9.78,0,1,0,9.77,9.79h0a9.79,9.79,0,0,0-9.77-9.78m0,23.81a14,14,0,1,1,14-14h0a14,14,0,0,1-14,14" fill="#fff"/>
  <path d="M33.22,21.93a5.88,5.88,0,1,1-5.88-5.88,5.88,5.88,0,0,1,5.88,5.88v0"/>
  <path d="M56.84,21.93A5.87,5.87,0,1,1,51,16.05h0a5.87,5.87,0,0,1,5.87,5.87h0"/>
  <path d="M11.1,16.05,7.41,18.1,0,38.05s21.36,5.42,27.35,4.18S33.22,36,33.22,36,8.52,45.19,11.1,16.05" fill="#8dc63f"/>
</svg>
