<svg id="Isolation_Mode" data-name="Isolation Mode" xmlns="http://www.w3.org/2000/svg" viewBox="0 0 270.23 78.77">
  <title>Vector Smart Object2</title>
  <path d="M62.62,31.88h0a25.39,25.39,0,0,0,2.15-10.25C64.76,7.55,53.34,0,39.25,0s-25.5,7.55-25.5,21.63A25.39,25.39,0,0,0,15.9,31.88h0l.13.27c.27.59.56,1.18.87,1.75L39.21,78.77,61.59,33.94q.48-.88.9-1.8Z" fill="#d1d3d4"/>
  <path d="M39.21,78.77,61.59,33.94q.48-.88.9-1.8l.13-.26h0a25.39,25.39,0,0,0,2.15-10.25C64.76,7.54,53.34,0,39.25,0" fill="#e6e7e8"/>
  <path d="M39.21,21.93c0,11.21.7,20.3,11.91,20.3A20.31,20.31,0,1,0,39.77,5.09l1.75,4.14s1.93,2.33,5.22-.48l.31,2-7.81,11.2" fill="#1baf5d"/>
  <path d="M67.36,16.05l3.69,2.05,7.41,19.95S57.1,43.47,51.12,42.23,45.25,36,45.25,36s24.69,9.2,22.11-19.94" fill="#1baf5d"/>
  <path d="M39.25,21.93c0,11.21-.69,20.3-11.91,20.3A20.31,20.31,0,1,1,38.69,5.09L36.94,9.23S35,11.56,31.72,8.75l-.31,2,7.81,11.2" fill="#8dc63f"/>
  <path d="M39.25,21.93A11.91,11.91,0,1,1,27.34,10,11.9,11.9,0,0,1,39.25,21.93" fill="#8dc63f"/>
  <path d="M27.34,12.15a9.78,9.78,0,1,0,9.78,9.78,9.79,9.79,0,0,0-9.78-9.78m0,23.81a14,14,0,1,1,14-14,14.05,14.05,0,0,1-14,14" fill="#fff"/>
  <path d="M63,21.93A11.91,11.91,0,1,1,51.12,10,11.9,11.9,0,0,1,63,21.93" fill="#1baf5d"/>
  <path d="M51.12,12.15a9.78,9.78,0,1,0,9.77,9.78,9.79,9.79,0,0,0-9.77-9.78m0,23.81a14,14,0,1,1,14-14,14,14,0,0,1-14,14" fill="#fff"/>
  <path d="M33.22,21.93a5.88,5.88,0,1,1-5.88-5.88,5.87,5.87,0,0,1,5.88,5.88"/>
  <path d="M56.84,21.93A5.87,5.87,0,1,1,51,16.05a5.87,5.87,0,0,1,5.87,5.88"/>
  <path d="M11.1,16.05,7.41,18.1,0,38.05s21.36,5.42,27.35,4.18S33.22,36,33.22,36,8.52,45.19,11.1,16.05" fill="#8dc63f"/>
  <path d="M104,47.72a13,13,0,0,0,3-.34A11.92,11.92,0,0,0,110,46.17v-17a13.4,13.4,0,0,0-2.41-.82,12.52,12.52,0,0,0-2.74-.29,6.8,6.8,0,0,0-3.27.76,7.15,7.15,0,0,0-2.4,2,9.32,9.32,0,0,0-1.49,3,12.83,12.83,0,0,0-.51,3.65,16.85,16.85,0,0,0,.42,3.78,11,11,0,0,0,1.27,3.25A7,7,0,0,0,101,46.86a5.36,5.36,0,0,0,3,.86m-.06-24.95a12.31,12.31,0,0,1,3.58.46A8.53,8.53,0,0,1,110,24.4V10H117v32.4c0,.76,0,1.56.11,2.41s.19,1.72.35,2.59a26.9,26.9,0,0,0,.62,2.62,17.27,17.27,0,0,0,.93,2.47h-6.59a4.34,4.34,0,0,1-.56-.57c-.19-.24-.37-.49-.55-.76a5.61,5.61,0,0,1-.49-.86,6.39,6.39,0,0,1-.35-.85,10.53,10.53,0,0,1-3.38,2.64,9.69,9.69,0,0,1-4.35.94,12.5,12.5,0,0,1-5.49-1.17,11.85,11.85,0,0,1-4.11-3.2,14,14,0,0,1-2.56-4.82,20,20,0,0,1-.88-6,16.56,16.56,0,0,1,1-5.64,14.63,14.63,0,0,1,2.82-4.8A13.9,13.9,0,0,1,98,24a13.62,13.62,0,0,1,6-1.26" fill="#4c5b6a"/>
  <path d="M130.8,23.23V43.3a5.27,5.27,0,0,0,.34,2,3.66,3.66,0,0,0,.91,1.37,3.59,3.59,0,0,0,1.34.78,5.57,5.57,0,0,0,1.67.24,18.35,18.35,0,0,0,4.14-.5,13.48,13.48,0,0,0,3.88-1.56V23.23h7V47.42a19.86,19.86,0,0,0,.16,2c.11.87.28,1.9.49,3.08h-6.67l-.17-.61c-.09-.3-.17-.62-.25-1l-.23-1a5.7,5.7,0,0,1-.13-.68,14.38,14.38,0,0,1-2.08,1.5,17.45,17.45,0,0,1-2.41,1.2,16.06,16.06,0,0,1-2.54.77,11.76,11.76,0,0,1-2.44.27,12.86,12.86,0,0,1-4.86-.8,7.89,7.89,0,0,1-3.11-2.18,8.06,8.06,0,0,1-1.65-3.26,15.57,15.57,0,0,1-.49-4V23.23Z" fill="#4c5b6a"/>
  <path d="M156.38,10h7.05V25.46c.4-.33.85-.65,1.34-1a10.68,10.68,0,0,1,1.69-.87,12.5,12.5,0,0,1,2.06-.61,12.35,12.35,0,0,1,2.42-.23,15.06,15.06,0,0,1,4.76.71,9.82,9.82,0,0,1,3.62,2.06,8.82,8.82,0,0,1,2.29,3.35,11.89,11.89,0,0,1,.8,4.51V52.52h-7v-19a5.4,5.4,0,0,0-1.43-4.16,5.68,5.68,0,0,0-4-1.32,11.91,11.91,0,0,0-1.59.1,10.85,10.85,0,0,0-1.55.3q-.8.2-1.62.48c-.55.19-1.13.42-1.75.67V52.52h-7.05Z" fill="#4c5b6a"/>
  <path d="M201.68,48.37a5,5,0,0,0,3.09-1,7.54,7.54,0,0,0,2.14-2.57,13.48,13.48,0,0,0,1.25-3.61,20.63,20.63,0,0,0,.41-4.09,17.78,17.78,0,0,0-.37-3.65,8.73,8.73,0,0,0-1.21-3,6.27,6.27,0,0,0-2.17-2.05,6.44,6.44,0,0,0-3.22-.76,5.75,5.75,0,0,0-3,.79,6.58,6.58,0,0,0-2.18,2.15,10.69,10.69,0,0,0-1.31,3.26,17.92,17.92,0,0,0-.06,7.71,11.73,11.73,0,0,0,1.25,3.36,7.43,7.43,0,0,0,2.2,2.48,5.29,5.29,0,0,0,3.21,1m.24,4.88a16.86,16.86,0,0,1-6.33-1.11A12.6,12.6,0,0,1,191,49,13.52,13.52,0,0,1,188.14,44a20,20,0,0,1-1-6.44,17.8,17.8,0,0,1,.9-5.69,13.27,13.27,0,0,1,2.71-4.72A12.84,12.84,0,0,1,195.35,24a16.05,16.05,0,0,1,6.46-1.2,15.59,15.59,0,0,1,6.4,1.2,11.92,11.92,0,0,1,4.42,3.26,13.57,13.57,0,0,1,2.57,4.88,21.24,21.24,0,0,1,.82,6,17.71,17.71,0,0,1-1,5.87,14.2,14.2,0,0,1-2.79,4.81,13.2,13.2,0,0,1-4.45,3.25,14,14,0,0,1-5.9,1.2" fill="#4c5b6a"/>
  <path d="M234.2,48.37a5,5,0,0,0,3.09-1,7.56,7.56,0,0,0,2.15-2.57,13.47,13.47,0,0,0,1.24-3.61,19.91,19.91,0,0,0,.41-4.09,17.79,17.79,0,0,0-.36-3.65,8.93,8.93,0,0,0-1.21-3,6.27,6.27,0,0,0-2.17-2.05,6.48,6.48,0,0,0-3.23-.76,5.72,5.72,0,0,0-3,.79,6.49,6.49,0,0,0-2.18,2.15,10.7,10.7,0,0,0-1.32,3.26,18.11,18.11,0,0,0,0,7.71,12,12,0,0,0,1.24,3.36A7.66,7.66,0,0,0,231,47.4a5.33,5.33,0,0,0,3.21,1m.25,4.88a16.79,16.79,0,0,1-6.33-1.11A12.55,12.55,0,0,1,223.49,49,13.66,13.66,0,0,1,220.66,44a20.31,20.31,0,0,1-1-6.44,18.08,18.08,0,0,1,.89-5.69,13.43,13.43,0,0,1,2.71-4.72A13,13,0,0,1,227.87,24a16.1,16.1,0,0,1,6.47-1.2,15.59,15.59,0,0,1,6.4,1.2,12,12,0,0,1,4.42,3.26,13.56,13.56,0,0,1,2.56,4.88,21.24,21.24,0,0,1,.83,6,17.46,17.46,0,0,1-1,5.87,14.2,14.2,0,0,1-2.79,4.81,13.16,13.16,0,0,1-4.44,3.25,14,14,0,0,1-5.9,1.2" fill="#4c5b6a"/>
  <path d="M250.22,24.7l4.31-1.47,1.84-7.56h5.21v7.56h7.18l-.65,5.05h-6.53V43.22a11,11,0,0,0,.17,2.08,4.12,4.12,0,0,0,.51,1.36,1.77,1.77,0,0,0,.81.73,2.62,2.62,0,0,0,1.11.22,10.68,10.68,0,0,0,2-.21,14,14,0,0,0,2.45-.71l1.63,3.44a15.93,15.93,0,0,1-3.84,2.22,10.07,10.07,0,0,1-3.67.73,10.94,10.94,0,0,1-4-.63,6,6,0,0,1-2.5-1.82,6.78,6.78,0,0,1-1.3-2.86,17.39,17.39,0,0,1-.37-3.77V28.28h-4.31Z" fill="#4c5b6a"/>
</svg>
